:FULLY-SPECIFIED
:FORCE-ALL-JOINTS-BE-3DOF
:DEGREES
340
root 8.13452 16.0899 -20.3058 10.5962 22.6261 3.51485
lfemur -7.88696 13.5738 -9.15782
ltibia 40.6298 -0 0
lfoot 9.29177 26.555 0.867297
ltoes -23.4772 0 0
rfemur -49.0538 -16.5975 15.3683
rtibia 55.3813 -0 0
rfoot 1.54936 -14.3519 0.171903
rtoes -8.69831 0 0
lowerback -0.942474 -1.76644 -1.49521
upperback 1.72835 -2.3184 -0.0802913
thorax 2.371 -1.1729 0.695065
lowerneck -6.03206 -8.2601 -0.696475
upperneck -1.58644 -11.0246 6.76383
head 0.966657 -5.42817 1.91402
lclavicle -4.48259e-014 7.95139e-015 0
lhumerus -48.1233 -33.0727 108.716
lradius 56.8763 -0 0
lwrist 21.5396 0 0
lhand 5.51899 11.8486 -0.00643487
lfingers 7.12502 -0 0
lthumb 30.8614 39.2468 -0.0171022
rclavicle -4.48259e-014 7.95139e-015 0
rhumerus -25.2766 20.3935 -76.5838
rradius 84.47 -0 0
rwrist 1.39516 0 0
rhand -1.97352 -13.2416 0.0991927
rfingers 7.12502 -0 0
rthumb 23.6883 -41.7213 0.125737
341
root 8.10855 16.1093 -20.1896 10.6668 21.5885 3.23257
lfemur -7.59566 13.3 -8.88325
ltibia 40.2889 -0 0
lfoot 10.2854 28.1539 0.447396
ltoes -26.2189 0 0
rfemur -48.7227 -16.3275 14.6504
rtibia 55.2092 -0 0
rfoot 1.26986 -15.5324 0.0888214
rtoes -8.26421 0 0
lowerback -1.31509 -1.71539 -1.27809
upperback 1.61998 -2.25489 0.054807
thorax 2.45731 -1.14322 0.699177
lowerneck -6.04479 -8.19251 -0.667819
upperneck -1.50312 -10.9388 6.62392
head 0.979345 -5.38587 1.86416
lclavicle -4.48259e-014 7.95139e-015 0
lhumerus -48.2075 -32.6309 108.924
lradius 56.821 -0 0
lwrist 21.6255 0 0
lhand 5.19863 11.8882 -0.00332814
lfingers 7.12502 -0 0
lthumb 30.5576 39.3578 -0.00884529
rclavicle -4.48259e-014 7.95139e-015 0
rhumerus -25.3805 19.0087 -77.2001
rradius 84.7329 -0 0
rwrist 1.61403 0 0
rhand -2.55806 -13.574 0.05129
rfingers 7.12502 -0 0
rthumb 23.1326 -42.1639 0.0650129
342
root 8.08257 16.1287 -20.0733 10.7424 20.5513 2.95088
lfemur -7.30604 13.0249 -8.61042
ltibia 39.9479 0 0
lfoot 11.2668 29.7453 0
ltoes -28.9607 0 0
rfemur -48.3957 -16.0535 13.9352
rtibia 55.0372 0 0
rfoot 0.992131 -16.7125 0
rtoes -7.8301 0 0
lowerback -1.6875 -1.66294 -1.06132
upperback 1.51176 -2.19113 0.189779
thorax 2.54362 -1.11354 0.703334
lowerneck -6.05749 -8.12491 -0.639183
upperneck -1.42004 -10.8528 6.48417
head 0.991996 -5.34355 1.81432
lclavicle -4.48259e-014 7.95139e-015 0
lhumerus -48.2894 -32.1888 109.13
lradius 56.7657 0 0
lwrist 21.7113 0 0
lhand 4.87827 11.9278 0
lfingers 7.12502 0 0
lthumb 30.2539 39.4688 0
rclavicle -4.48259e-014 7.95139e-015 0
rhumerus -25.468 17.623 -77.8089
rradius 84.9958 0 0
rwrist 1.83289 0 0
rhand -3.14231 -13.9058 0
rfingers 7.12502 0 0
rthumb 22.5774 -762.606 0
343
root 8.02327 16.1405 -19.9429 10.5987 19.3666 2.62417
lfemur -8.49542 13.388 -8.63439
ltibia 40.9601 -0 0
lfoot 10.5613 28.7156 0.197447
ltoes -27.5834 0 0
rfemur -47.7016 -15.5694 14.4251
rtibia 54.6259 -0 0
rfoot 0.280411 -16.1586 -0.105194
rtoes -7.00523 0 0
lowerback -1.4652 -1.55542 -0.924737
upperback 1.54787 -2.05464 0.217735
thorax 2.45722 -1.04315 0.654415
lowerneck -6.12635 -7.90794 -0.524205
upperneck -1.38771 -10.571 6.34217
head 0.997266 -5.2038 1.76008
lclavicle 5.1038e-014 6.16232e-015 0
lhumerus -47.9827 -31.9282 108.64
lradius 56.7648 -0 0
lwrist 21.6393 0 0
lhand 4.0348 11.642 0.0642756
lfingers 7.12502 -0 0
lthumb 29.4422 39.2583 0.045466
rclavicle 5.1038e-014 6.16232e-015 0
rhumerus -25.8754 17.5087 -78.3327
rradius 84.2397 -0 0
rwrist 2.07337 0 0
rhand -3.32426 -14.085 0.00855089
rfingers 7.12502 -0 0
rthumb 22.4025 -42.8034 0.00905099
344
root 7.96397 16.1524 -19.8126 10.463 18.1812 2.30287
lfemur -9.68678 13.7504 -8.66616
ltibia 41.9723 -0 0
lfoot 9.85237 27.6835 0.382168
ltoes -26.2061 0 0
rfemur -47.0048 -15.0911 14.92
rtibia 54.2146 -0 0
rfoot -0.432295 -15.6035 -0.203494
rtoes -6.18035 0 0
lowerback -1.24265 -1.44842 -0.787744
upperback 1.58405 -1.91817 0.245775
thorax 2.37077 -0.972842 0.605391
lowerneck -6.19473 -7.69083 -0.40955
upperneck -1.35612 -10.2891 6.20045
head 1.0024 -5.06405 1.70586
lclavicle 5.1038e-014 6.16232e-015 0
lhumerus -47.6795 -31.6654 108.152
lradius 56.764 -0 0
lwrist 21.5674 0 0
lhand 3.19103 11.3554 0.124337
lfingers 7.12502 -0 0
lthumb 28.6304 39.0472 0.0879452
rclavicle 5.1038e-014 6.16232e-015 0
rhumerus -26.2815 17.3908 -78.8554
rradius 83.4836 -0 0
rwrist 2.31385 0 0
rhand -3.50624 -14.2643 0.0165325
rfingers 7.12502 -0 0
rthumb 22.2276 -43.0008 0.0174995
345
root 7.90468 16.1642 -19.6822 10.3352 16.995 1.98662
lfemur -10.8802 14.1122 -8.70574
ltibia 42.9845 -0 0
lfoot 9.1402 26.6492 0.554077
ltoes -24.8288 0 0
rfemur -46.3054 -14.6187 15.4197
rtibia 53.8033 -0 0
rfoot -1.14593 -15.0471 -0.294877
rtoes -5.35548 0 0
lowerback -1.01986 -1.34196 -0.650343
upperback 1.6203 -1.78171 0.273898
thorax 2.28425 -0.902605 0.556262
lowerneck -6.26264 -7.47359 -0.295214
upperneck -1.32526 -10.0072 6.05902
head 1.0074 -4.92429 1.65167
lclavicle 5.1038e-014 6.16232e-015 0
lhumerus -47.3798 -31.4005 107.668
lradius 56.7631 -0 0
lwrist 21.4954 0 0
lhand 2.34696 11.0678 0.180169
lfingers 7.12502 -0 0
lthumb 27.8185 38.8354 0.127428
rclavicle 5.1038e-014 6.16232e-015 0
rhumerus -26.6861 17.2694 -79.3768
rradius 82.7274 -0 0
rwrist 2.55433 0 0
rhand -3.68825 -14.4436 0.0239446
rfingers 7.12502 -0 0
rthumb 22.0527 -43.1982 0.0253452
346
root 7.84538 16.176 -19.5518 10.215 15.8082 1.67503
lfemur -12.0758 14.4731 -8.75315
ltibia 43.9966 -0 0
lfoot 8.42503 25.6128 0.713089
ltoes -23.4515 0 0
rfemur -45.6032 -14.1522 15.9243
rtibia 53.392 -0 0
rfoot -1.86042 -14.4897 -0.37932
rtoes -4.5306 0 0
lowerback -0.796819 -1.23604 -0.512535
upperback 1.6566 -1.64528 0.302106
thorax 2.19768 -0.832441 0.507028
lowerneck -6.33007 -7.25621 -0.181193
upperneck -1.29514 -9.72514 5.91787
head 1.01227 -4.78453 1.59751
lclavicle 5.1038e-014 6.16232e-015 0
lhumerus -47.0836 -31.1334 107.187
lradius 56.7622 -0 0
lwrist 21.4235 0 0
lhand 1.50262 10.7795 0.231759
lfingers 7.12502 -0 0
lthumb 27.0063 38.6232 0.163907
rclavicle 5.1038e-014 6.16232e-015 0
rhumerus -27.0893 17.1445 -79.8969
rradius 81.9713 -0 0
rwrist 2.79481 0 0
rhand -3.87027 -14.6229 0.0307872
rfingers 7.12502 -0 0
rthumb 21.8777 -43.3957 0.0325881
347
root 7.78608 16.1878 -19.4214 10.1022 14.6208 1.36777
lfemur -13.2737 14.833 -8.80842
ltibia 45.0088 -0 0
lfoot 7.70706 24.5745 0.859128
ltoes -22.0742 0 0
rfemur -44.8981 -13.6917 16.4338
rtibia 52.9807 -0 0
rfoot -2.5757 -13.9312 -0.456801
rtoes -3.70573 0 0
lowerback -0.573536 -1.13065 -0.37432
upperback 1.69297 -1.50886 0.330399
thorax 2.11105 -0.762352 0.457689
lowerneck -6.39704 -7.03871 -0.0674851
upperneck -1.26575 -9.44304 5.77698
head 1.01701 -4.64476 1.54336
lclavicle 5.1038e-014 6.16232e-015 0
lhumerus -46.7908 -30.8642 106.708
lradius 56.7614 -0 0
lwrist 21.3515 0 0
lhand 0.658025 10.4905 0.279094
lfingers 7.12502 -0 0
lthumb 26.1941 38.4105 0.197374
rclavicle 5.1038e-014 6.16232e-015 0
rhumerus -27.491 17.0162 -80.4158
rradius 81.2152 -0 0
rwrist 3.03529 0 0
rhand -4.05232 -14.8022 0.03706
rfingers 7.12502 -0 0
rthumb 21.7027 -43.5932 0.0392279
348
root 7.72678 16.1997 -19.2911 9.99645 13.4329 1.0645
lfemur -14.474 15.1916 -8.87157
ltibia 46.021 -0 0
lfoot 6.98654 23.5343 0.992122
ltoes -20.6969 0 0
rfemur -44.1903 -13.2373 16.948
rtibia 52.5694 -0 0
rfoot -3.29172 -13.3719 -0.527301
rtoes -2.88085 0 0
lowerback -0.350006 -1.0258 -0.2357
upperback 1.72941 -1.37245 0.358777
thorax 2.02436 -0.692338 0.408245
lowerneck -6.46355 -6.82107 0.0459145
upperneck -1.23708 -9.16086 5.63635
head 1.02161 -4.50499 1.48924
lclavicle 5.1038e-014 6.16232e-015 0
lhumerus -46.5015 -30.5929 106.233
lradius 56.7605 -0 0
lwrist 21.2795 0 0
lhand -0.1868 10.2008 0.322163
lfingers 7.12502 -0 0
lthumb 25.3817 38.1973 0.227821
rclavicle 5.1038e-014 6.16232e-015 0
rhumerus -27.8912 16.8843 -80.9334
rradius 80.4591 -0 0
rwrist 3.27578 0 0
rhand -4.23438 -14.9816 0.042763
rfingers 7.12502 -0 0
rthumb 21.5277 -43.7907 0.0452646
